<svg width="95" height="88" viewBox="0 0 95 88" fill="none" xmlns="http://www.w3.org/2000/svg">
<path fill-rule="evenodd" clip-rule="evenodd" d="M48.5353 18.8311C45.2345 17.5761 45.0086 21.5754 44.389 24.078C43.756 26.6341 43.1523 29.15 42.495 31.7486L31.084 78.3077C28.9069 86.8019 30.4206 87.5077 20.9363 87.5029C16.9613 87.5017 5.08861 88.0338 2.01504 87.4081C-1.2942 86.7339 0.313041 83.1841 0.989712 80.4786C1.61293 77.9894 2.29567 75.4163 2.92497 72.9101C4.17383 67.9341 5.56362 62.7212 6.89874 57.7889C9.65766 47.5939 12.2453 37.4001 14.7819 27.1492C17.6222 15.6664 22.5108 9.08799 30.6612 4.5153C49.6213 -6.12435 74.2318 2.77685 79.5625 23.4742C82.8183 36.1147 71.4546 42.8474 65.8542 47.7676C62.4963 50.7172 58.5736 53.843 55.9373 57.309C52.2758 62.1222 55.975 68.0228 61.3969 59.825C68.1842 49.5631 79.65 50.7172 86.2114 58.6417C88.9132 61.9036 90.3054 67.9086 91.6466 72.6574C96.8486 91.0842 97.7257 87.4409 74.1285 87.4482C64.9175 87.4506 65.9064 87.0485 63.7415 78.9151C63.0393 76.2765 62.9786 72.5663 59.9063 72.9672C58.3014 73.1762 55.5316 75.4965 53.7652 76.4077C42.9202 82.0008 31.3731 71.5847 41.4928 60.826C49.0904 52.7472 53.617 46.4531 52.7156 33.7373C52.5102 30.8399 51.1581 19.8309 48.5353 18.8335V18.8311Z" fill="white"/>
</svg>
