<svg width="298" height="88" viewBox="0 0 298 88" fill="none" xmlns="http://www.w3.org/2000/svg">
<path fill-rule="evenodd" clip-rule="evenodd" d="M48.5353 18.8311C45.2345 17.5761 45.0086 21.5754 44.389 24.078C43.756 26.6341 43.1523 29.15 42.495 31.7486L31.084 78.3077C28.9069 86.8019 30.4206 87.5077 20.9363 87.5029C16.9613 87.5017 5.08861 88.0338 2.01504 87.4081C-1.2942 86.7339 0.313041 83.1841 0.989712 80.4786C1.61293 77.9894 2.29567 75.4163 2.92497 72.9101C4.17383 67.9341 5.56362 62.7212 6.89874 57.7889C9.65766 47.5939 12.2453 37.4001 14.7819 27.1492C17.6222 15.6664 22.5108 9.08799 30.6612 4.5153C49.6213 -6.12435 74.2318 2.77685 79.5625 23.4742C82.8183 36.1147 71.4546 42.8474 65.8542 47.7676C62.4963 50.7172 58.5736 53.843 55.9373 57.309C52.2758 62.1222 55.975 68.0228 61.3969 59.825C68.1842 49.5631 79.65 50.7172 86.2114 58.6417C88.9132 61.9036 90.3054 67.9086 91.6466 72.6574C96.8486 91.0842 97.7257 87.4409 74.1285 87.4482C64.9175 87.4506 65.9064 87.0485 63.7415 78.9151C63.0393 76.2765 62.9786 72.5663 59.9063 72.9672C58.3014 73.1762 55.5316 75.4965 53.7652 76.4077C42.9202 82.0008 31.3731 71.5847 41.4928 60.826C49.0904 52.7472 53.617 46.4531 52.7156 33.7373C52.5102 30.8399 51.1581 19.8309 48.5353 18.8335V18.8311Z" fill="white"/>
<path d="M131.885 83.6002C126.989 83.6002 122.669 82.4962 118.925 80.2882C115.181 78.0802 112.229 75.0322 110.069 71.1442C107.957 67.2082 106.901 62.6722 106.901 57.5362C106.901 52.4002 107.957 47.8882 110.069 44.0002C112.229 40.0642 115.181 36.9922 118.925 34.7842C122.669 32.5762 126.989 31.4722 131.885 31.4722C136.829 31.4722 141.173 32.5762 144.917 34.7842C148.709 36.9922 151.637 40.0642 153.701 44.0002C155.813 47.8882 156.869 52.4002 156.869 57.5362C156.869 62.6722 155.813 67.2082 153.701 71.1442C151.637 75.0322 148.709 78.0802 144.917 80.2882C141.173 82.4962 136.829 83.6002 131.885 83.6002ZM131.885 74.5282C134.909 74.5282 137.525 73.8322 139.733 72.4402C141.941 71.0482 143.645 69.1042 144.845 66.6082C146.045 64.0642 146.645 61.0402 146.645 57.5362C146.645 54.0322 146.045 51.0322 144.845 48.5362C143.645 45.9922 141.941 44.0242 139.733 42.6322C137.525 41.2402 134.909 40.5442 131.885 40.5442C128.909 40.5442 126.317 41.2402 124.109 42.6322C121.949 44.0242 120.245 45.9922 118.997 48.5362C117.797 51.0322 117.197 54.0322 117.197 57.5362C117.197 61.0402 117.797 64.0642 118.997 66.6082C120.245 69.1042 121.949 71.0482 124.109 72.4402C126.317 73.8322 128.909 74.5282 131.885 74.5282ZM165.088 82.7362V32.3362H177.184L192.376 63.3682L207.352 32.3362H219.376V82.7362H209.296V49.4002L196.264 75.6802H188.272L175.168 49.4002V82.7362H165.088ZM229.143 82.7362V32.3362H239.223L262.047 66.5362V32.3362H272.127V82.7362H262.047L239.223 48.6082V82.7362H229.143ZM281.948 82.7362V32.3362H292.028V82.7362H281.948Z" fill="white"/>
</svg>
